<?xml version="1.0" encoding="UTF-8" standalone="no"?>
<svg width="89px" height="89px" viewBox="0 0 89 89" version="1.1" xmlns="http://www.w3.org/2000/svg" xmlns:xlink="http://www.w3.org/1999/xlink" xmlns:sketch="http://www.bohemiancoding.com/sketch/ns">
    <!-- Generator: Sketch 3.3.3 (12081) - http://www.bohemiancoding.com/sketch -->
    <title>Close</title>
    <desc>Created with Sketch.</desc>
    <defs></defs>
    <g id="Page-1" stroke="none" stroke-width="1" fill="none" fill-rule="evenodd" sketch:type="MSPage">
        <g id="Close" sketch:type="MSLayerGroup" fill="#000000">
            <g id="Page-1" sketch:type="MSShapeGroup">
                <g id="Close">
                    <g id="Group">
                        <path d="M51.231797,44.6760002 L87.3067972,80.7510004 C89.1177183,82.5619215 89.1294085,85.5110976 87.3176219,87.3228841 C85.4932042,89.1473018 82.5635031,89.1298242 80.7457383,87.3120594 L44.6707381,51.2370592 L8.59573779,87.3120594 C6.77797314,89.1298242 3.84827206,89.1473018 2.02385419,87.3228841 C0.212067757,85.5110976 0.223757715,82.5619215 2.03467873,80.7510004 L38.1096791,44.6760002 L2.03467873,8.60099992 C0.223757715,6.79007891 0.212067757,3.84090276 2.02385419,2.02911633 C3.84827206,0.204698449 6.77797314,0.222176206 8.59573779,2.03994087 L44.6707381,38.1149413 L80.7457383,2.03994087 C82.5635031,0.222176206 85.4932042,0.204698449 87.3176219,2.02911633 C89.1294085,3.84090276 89.1177183,6.79007891 87.3067972,8.60099992 L51.231797,44.6760002 L51.231797,44.6760002 Z" id="Shape"></path>
                    </g>
                </g>
            </g>
        </g>
    </g>
</svg>