<?xml version="1.0" encoding="UTF-8" standalone="no"?>
<svg width="88px" height="88px" viewBox="0 0 88 88" version="1.1" xmlns="http://www.w3.org/2000/svg" xmlns:xlink="http://www.w3.org/1999/xlink" xmlns:sketch="http://www.bohemiancoding.com/sketch/ns">
    <!-- Generator: Sketch 3.3.3 (12081) - http://www.bohemiancoding.com/sketch -->
    <title>SunOff</title>
    <desc>Created with Sketch.</desc>
    <defs></defs>
    <g id="Page-1" stroke="none" stroke-width="1" fill="none" fill-rule="evenodd" sketch:type="MSPage">
        <g id="SunOff" sketch:type="MSLayerGroup" fill="#34322F">
            <g id="Page-1" sketch:type="MSShapeGroup">
                <g id="Torch">
                    <path d="M44,19.2335 C30.3215,19.2335 19.2335,30.3215 19.2335,44 C19.2335,57.6785 30.3215,68.7665 44,68.7665 C57.6785,68.7665 68.7665,57.6785 68.7665,44 C68.7665,30.3215 57.6785,19.2335 44,19.2335 L44,19.2335 L44,19.2335 Z M44,74.25 C42.4792501,74.25 41.25,75.4792501 41.25,77 L41.25,85.25 C41.25,86.7707499 42.4792501,88 44,88 C45.5207499,88 46.75,86.7707499 46.75,85.25 L46.75,77 C46.75,75.4792501 45.5207499,74.25 44,74.25 L44,74.25 L44,74.25 Z M69.278,65.3895 C68.2055,64.317 66.4647499,64.317 65.3895,65.3895 C64.317,66.4647499 64.317,68.2055 65.3895,69.278 L71.2222499,75.1107499 C72.2975,76.186 74.0382501,76.186 75.1107499,75.1107499 C76.186,74.041 76.186,72.2975 75.1107499,71.2222499 L69.278,65.3895 L69.278,65.3895 Z M85.25,41.25 L77,41.25 C75.4792501,41.25 74.25,42.4792501 74.25,44 C74.25,45.5207499 75.4792501,46.75 77,46.75 L85.25,46.75 C86.7707499,46.75 88,45.5207499 88,44 C88,42.4792501 86.7707499,41.25 85.25,41.25 L85.25,41.25 L85.25,41.25 Z M70.4577499,21.3922499 L76.2382501,15.6172499 C77.2997501,14.5502499 77.2997501,12.826 76.2382501,11.7617499 C75.174,10.7002499 73.4497499,10.7002499 72.3827501,11.7617499 L66.6077501,17.5422499 C65.5435,18.6065 65.5435,20.3307499 66.6077501,21.3922499 C67.6692501,22.4592499 69.3935,22.4592499 70.4577499,21.3922499 L70.4577499,21.3922499 L70.4577499,21.3922499 Z M44,13.75 C45.5207499,13.75 46.75,12.5207499 46.75,11 L46.75,2.75 C46.75,1.22925 45.5207499,0 44,0 C42.4792501,0 41.25,1.22925 41.25,2.75 L41.25,11 C41.25,12.5207499 42.4792501,13.75 44,13.75 L44,13.75 L44,13.75 Z M20.3775,63.7697499 L14.5997501,69.5502501 C13.5355,70.6145 13.5355,72.3387501 14.5997501,73.4002499 C15.6612499,74.4645 17.3855,74.4645 18.4497501,73.4002499 L24.2302501,67.6225 C25.2917501,66.5582499 25.2917501,64.834 24.2302501,63.7697499 C23.166,62.7082499 21.4417501,62.7082499 20.3775,63.7697499 L20.3775,63.7697499 L20.3775,63.7697499 Z M11,41.25 L2.75,41.25 C1.22925,41.25 0,42.4792501 0,44 C0,45.5207499 1.22925,46.75 2.75,46.75 L11,46.75 C12.5207499,46.75 13.75,45.5207499 13.75,44 C13.75,42.4792501 12.5207499,41.25 11,41.25 L11,41.25 L11,41.25 Z M18.722,22.6105 C19.7945,23.683 21.5352501,23.683 22.6105,22.6105 C23.683,21.5352501 23.683,19.7945 22.6105,18.722 L16.7777499,12.8892501 C15.7025,11.814 13.9617499,11.814 12.8892501,12.8892501 C11.814,13.9617499 11.814,15.7025 12.8892501,16.7777499 L18.722,22.6105 L18.722,22.6105 Z" id="Fill-76"></path>
                </g>
            </g>
        </g>
    </g>
</svg>